<svg width="15" height="9" viewBox="0 0 15 9" fill="none" xmlns="http://www.w3.org/2000/svg">
<path d="M7.50021 8.81097C7.25529 8.81141 7.0127 8.76339 6.78642 8.66969C6.56013 8.57598 6.35462 8.43843 6.18171 8.26497L0.309208 2.08947C0.207467 1.98231 0.127828 1.85617 0.0748386 1.71823C0.0218494 1.58029 -0.00345227 1.43327 0.000378141 1.28555C0.00420856 1.13784 0.0370961 0.992326 0.0971629 0.857321C0.15723 0.722316 0.2433 0.600464 0.350458 0.498723C0.457617 0.396981 0.583766 0.317342 0.721702 0.264353C0.859639 0.211364 1.00666 0.186062 1.15438 0.189892C1.30209 0.193723 1.44761 0.22661 1.58261 0.286677C1.71761 0.346744 1.83947 0.432814 1.94121 0.539972L7.22871 6.10797C7.26362 6.14492 7.3057 6.17436 7.35239 6.19448C7.39907 6.2146 7.44937 6.22498 7.50021 6.22498C7.55104 6.22498 7.60134 6.2146 7.64803 6.19448C7.69471 6.17436 7.7368 6.14492 7.77171 6.10797L13.0592 0.539972C13.161 0.432814 13.2828 0.346744 13.4178 0.286677C13.5528 0.22661 13.6983 0.193723 13.846 0.189892C13.9938 0.186062 14.1408 0.211364 14.2787 0.264353C14.4167 0.317342 14.5428 0.396981 14.65 0.498723C14.7571 0.600464 14.8432 0.722316 14.9033 0.857321C14.9633 0.992326 14.9962 1.13784 15 1.28555C15.0039 1.43327 14.9786 1.58029 14.9256 1.71823C14.8726 1.85617 14.7929 1.98231 14.6912 2.08947L8.85021 8.24997C8.67326 8.42784 8.4629 8.56896 8.23121 8.66524C7.99953 8.76152 7.7511 8.81105 7.50021 8.81097Z" fill="black"/>
</svg>
