<svg width="30" height="30" viewBox="0 0 30 30" fill="none" xmlns="http://www.w3.org/2000/svg">
<path fill-rule="evenodd" clip-rule="evenodd" d="M15.1429 0C6.85714 0 0 6.85714 0 15.1429C0 22.5714 5.42857 28.5714 12.2857 30C12.2857 27.7143 12.2857 26 12.2857 25.4286C12.2857 23.4286 12.2857 21.4286 12.2857 19.4286C12.2857 19.1429 12.2857 18.8571 12 19.1429C11.4286 19.1429 10.8571 19.1429 10 19.1429C9.71429 19.1429 9.71429 19.1429 9.71429 18.8571C9.71429 17.7143 9.71429 16.2857 9.71429 15.1429C9.71429 14.8571 9.71429 14.8571 10 14.8571C10.5714 14.8571 11.1429 14.8571 12 14.8571C12.2857 14.8571 12.5714 14.8571 12.5714 14.2857C12.5714 13.4286 12.5714 12.2857 12.5714 11.4286C12.5714 10.2857 12.8571 9.14286 13.7143 8.28572C14.2857 6.85714 15.4286 6.28571 16.8571 6.28571C18.2857 6.28571 19.7143 6.28571 21.1429 6.28571C21.4286 6.28571 21.4286 6.28571 21.4286 6.57143C21.4286 7.71429 21.4286 9.14286 21.4286 10.2857C21.4286 10.5714 21.4286 10.5714 21.1429 10.5714C20.5714 10.5714 19.7143 10.5714 19.1429 10.5714C18.2857 10.5714 17.7143 11.1429 17.7143 12C17.7143 12.8571 17.7143 13.4286 17.7143 14.2857C17.7143 14.5714 18 14.5714 18 14.5714C19.1429 14.5714 20 14.5714 21.1429 14.5714C21.4286 14.5714 21.4286 14.5714 21.4286 14.8571C21.4286 16 21.1429 17.4286 21.1429 18.5714C21.1429 18.8571 20.8571 18.8571 20.8571 18.8571C20 18.8571 19.1429 18.8571 18.2857 18.8571C17.7143 18.8571 17.7143 18.8571 17.7143 19.4286C17.7143 21.1429 17.7143 25.4286 17.7143 29.7143C24.8571 28.5714 30 22.2857 30 14.8571C30 6.85714 23.4286 0 15.1429 0Z" fill="white"/>
</svg>
