<svg width="30" height="30" viewBox="0 0 30 30" fill="none" xmlns="http://www.w3.org/2000/svg">
<path d="M15 0C6.71625 0 0 6.71625 0 15C0 23.2838 6.71625 30 15 30C23.2838 30 30 23.2838 30 15C30 6.71625 23.2838 0 15 0ZM23.6975 18.6075C23.5538 21.7887 21.7825 23.5513 18.6087 23.6975C17.675 23.74 17.3763 23.75 15 23.75C12.6238 23.75 12.3263 23.74 11.3925 23.6975C8.2125 23.5513 6.44875 21.7863 6.3025 18.6075C6.26 17.675 6.25 17.3763 6.25 15C6.25 12.6238 6.26 12.3263 6.3025 11.3925C6.44875 8.2125 8.21375 6.44875 11.3925 6.30375C12.3263 6.26 12.6238 6.25 15 6.25C17.3763 6.25 17.675 6.26 18.6087 6.30375C21.79 6.45 23.555 8.21875 23.6975 11.3925C23.74 12.3263 23.75 12.6238 23.75 15C23.75 17.3763 23.74 17.675 23.6975 18.6075Z" fill="white"/>
<path d="M18.6213 10.0804C18.6213 10.6604 19.0913 11.1304 19.6713 11.1304C20.2513 11.1304 20.7213 10.6592 20.7213 10.0804C20.7213 9.50042 20.2513 9.03042 19.6713 9.03042C19.0913 9.03042 18.6213 9.50042 18.6213 10.0804Z" fill="white"/>
<path d="M15 17.6667C16.61 17.6667 17.9163 16.3617 17.9163 14.7504C17.9163 13.1392 16.61 11.8342 15 11.8342C13.39 11.8342 12.0838 13.1392 12.0838 14.7504C12.0838 16.3617 13.39 17.6667 15 17.6667Z" fill="white"/>
</svg>
