<svg width="30" height="30" viewBox="0 0 30 30" fill="none" xmlns="http://www.w3.org/2000/svg">
<path fill-rule="evenodd" clip-rule="evenodd" d="M15 30C23.2843 30 30 23.2843 30 15C30 6.71573 23.2843 0 15 0C6.71573 0 0 6.71573 0 15C0 23.2843 6.71573 30 15 30ZM8.16483 12.1197V22H11.4615V12.1197H8.16483ZM8 8.82622C8 9.83566 8.81264 10.6524 9.81319 10.6524C10.8137 10.6524 11.6264 9.83566 11.6264 8.82622C11.6264 7.81842 10.8154 7 9.81319 7C8.81099 7 8 7.81842 8 8.82622ZM19.7066 22H23V16.4687C23 11.0608 17.844 11.2584 16.4066 13.9195V12.1197H13.1099V22H16.4066V17.2887C16.4066 14.4531 19.7066 14.1912 19.7066 17.2887V22Z" fill="white"/>
</svg>
