<svg width="19" height="25" viewBox="0 0 19 25" fill="none" xmlns="http://www.w3.org/2000/svg">
<path d="M9.5 0C7.17936 0 4.95376 0.921872 3.31282 2.56282C1.67187 4.20376 0.75 6.42936 0.75 8.75C0.75 15.385 8.2325 24.1925 8.5525 24.5625C8.66985 24.6989 8.81525 24.8083 8.97877 24.8833C9.1423 24.9583 9.32009 24.9972 9.5 24.9972C9.67991 24.9972 9.8577 24.9583 10.0212 24.8833C10.1847 24.8083 10.3302 24.6989 10.4475 24.5625C10.7675 24.1925 18.25 15.385 18.25 8.75C18.25 6.42936 17.3281 4.20376 15.6872 2.56282C14.0462 0.921872 11.8206 0 9.5 0ZM9.5 11.875C8.88193 11.875 8.27775 11.6917 7.76384 11.3483C7.24994 11.005 6.8494 10.5169 6.61288 9.94589C6.37635 9.37487 6.31447 8.74653 6.43505 8.14034C6.55562 7.53415 6.85325 6.97733 7.29029 6.54029C7.72733 6.10325 8.28415 5.80563 8.89034 5.68505C9.49653 5.56447 10.1249 5.62635 10.6959 5.86288C11.2669 6.0994 11.755 6.49994 12.0983 7.01384C12.4417 7.52775 12.625 8.13193 12.625 8.75C12.625 9.5788 12.2958 10.3737 11.7097 10.9597C11.1237 11.5458 10.3288 11.875 9.5 11.875Z" fill="#EA7600"/>
</svg>
