<svg width="21" height="21" viewBox="0 0 21 21" fill="none" xmlns="http://www.w3.org/2000/svg">
<path d="M20.5378 20.538C20.6841 20.3919 20.8002 20.2184 20.8794 20.0275C20.9586 19.8365 20.9993 19.6318 20.9993 19.425C20.9993 19.2183 20.9586 19.0136 20.8794 18.8226C20.8002 18.6316 20.6841 18.4581 20.5378 18.312L16.5478 14.322C16.4643 14.2375 16.4117 14.1271 16.3988 14.009C16.3858 13.8908 16.4132 13.7717 16.4764 13.671C17.6445 11.8109 18.0863 9.58566 17.7175 7.42039C17.3487 5.25513 16.1952 3.30162 14.4772 1.93305C12.7592 0.564476 10.5973 -0.123224 8.4044 0.00132096C6.21149 0.125866 4.14131 1.05393 2.58935 2.60821C1.03739 4.16249 0.112435 6.23405 -0.00882713 8.42715C-0.130089 10.6202 0.560847 12.7812 1.93199 14.4971C3.30313 16.213 5.25837 17.3636 7.42418 17.7292C9.59 18.0947 11.8146 17.6495 13.6729 16.4787C13.7737 16.4154 13.893 16.3881 14.0113 16.4015C14.1296 16.4148 14.2398 16.468 14.3239 16.5522L18.3139 20.5422C18.4599 20.6888 18.6333 20.805 18.8243 20.8844C19.0153 20.9637 19.2201 21.0046 19.4269 21.0046C19.6338 21.0046 19.8386 20.9637 20.0296 20.8844C20.2206 20.805 20.394 20.6888 20.5399 20.5422L20.5378 20.538ZM3.14984 8.92502C3.14984 7.78284 3.48854 6.6663 4.12311 5.7166C4.75767 4.76691 5.6596 4.02671 6.71485 3.58962C7.77009 3.15252 8.93125 3.03816 10.0515 3.26099C11.1717 3.48382 12.2007 4.03383 13.0084 4.84148C13.816 5.64913 14.366 6.67814 14.5889 7.79838C14.8117 8.91862 14.6973 10.0798 14.2602 11.135C13.8232 12.1903 13.083 13.0922 12.1333 13.7268C11.1836 14.3613 10.067 14.7 8.92484 14.7C7.39356 14.6989 5.92531 14.0901 4.84253 13.0073C3.75975 11.9246 3.15096 10.4563 3.14984 8.92502Z" fill="black"/>
</svg>
