<svg width="21" height="21" viewBox="0 0 21 21" fill="none" xmlns="http://www.w3.org/2000/svg">
<g clip-path="url(#clip0)">
<path fill-rule="evenodd" clip-rule="evenodd" d="M12.7418 18.949C11.4161 18.6865 10.1019 17.9847 9.03875 16.933C13.6089 15.1462 17.2095 12.0487 18.9971 8.44462C20.1443 13.2107 17.2156 17.7625 12.7418 18.949ZM1.91712 8.81038C3.29875 9.30912 4.16412 10.0712 4.95162 10.9944C4.8545 14.5162 6.58087 17.3906 8.91887 19.0995C4.21225 18.2385 0.9625 13.6798 1.91712 8.81038ZM4.7775 3.89287C6.72875 4.56838 8.73512 6.0795 10.1404 7.9275C8.85938 8.9285 7.5355 9.63375 6.48987 10.101C5.50375 8.9005 4.347 7.81375 2.42287 7.13825C2.94788 5.87913 3.7625 4.77312 4.7775 3.89287ZM14.1085 2.53662C13.5389 4.24113 12.5711 5.6385 11.4529 6.76288C10.1272 5.05838 8.34487 3.61287 6.50737 2.72125C8.87775 1.5015 11.6515 1.41925 14.1085 2.53662ZM18.0574 6.10575C16.8289 10.0503 12.9062 13.6692 7.89075 15.4893C7.24937 14.4629 6.82237 13.2536 6.71912 11.9079C9.23563 10.8588 13.8416 8.33175 15.6467 3.43613C16.6241 4.14925 17.4457 5.0575 18.0574 6.10575ZM21 10.5C21 4.70487 16.296 0 10.5 0C4.70487 0 0 4.70487 0 10.5C0 16.2951 4.70487 21 10.5 21C16.2208 21 21 16.3468 21 10.5Z" fill="white"/>
</g>
<defs>
<clipPath id="clip0">
<rect width="21" height="21" fill="white"/>
</clipPath>
</defs>
</svg>
