<svg width="1689" height="1702" viewBox="0 0 1689 1702" fill="none" xmlns="http://www.w3.org/2000/svg">
<line x1="936.77" y1="600.999" x2="1014.53" y2="1059.45" stroke="white" stroke-width="3"/>
<line x1="569.591" y1="837.554" x2="588.962" y2="951.759" stroke="white" stroke-width="3"/>
<path d="M1013.13 1059.42C885.52 1081.07 764.53 995.168 742.887 867.563C721.243 739.957 807.143 618.967 934.748 597.324" stroke="white" stroke-width="3" stroke-dasharray="24 24"/>
<path d="M1181.54 595.849L1246.71 980.068C1275.2 1148.05 1162.12 1307.32 994.142 1335.81L558.922 1409.63L390.578 417.099L825.798 343.281C993.779 314.79 1153.05 427.868 1181.54 595.849Z" stroke="white" stroke-width="3"/>
<path d="M1023.31 1056.72L513.724 1143.15L435.776 683.578L945.365 597.146C1072.27 575.621 1192.6 661.051 1214.13 787.958C1235.65 914.866 1150.22 1035.19 1023.31 1056.72Z" stroke="white" stroke-width="3"/>
</svg>
