<svg width="87" height="39" viewBox="0 0 87 39" fill="none" xmlns="http://www.w3.org/2000/svg">
<path d="M8.60117 21.6849C7.55941 21.6849 6.69128 21.8855 5.97006 22.2865C5.12865 22.7678 4.50092 23.3828 4.06018 24.1449V20.1073H4.07353V11.2435H9.77648C10.3641 11.2435 10.8583 11.043 11.259 10.6285C11.6597 10.2275 11.8733 9.71944 11.8733 9.14456V7.80763H4.07353V3.48936H14.5445V0.0534668H2.09687C1.50921 0.0534668 1.01504 0.267375 0.614369 0.668452C0.213694 1.06953 0 1.57756 0 2.15244V17.3132V20.094V31.0167C0 33.8509 0.814707 35.7627 2.44412 36.7521C4.07353 37.7548 5.84986 38.2494 7.75975 38.2494C8.76144 38.2494 9.76312 38.0756 10.7782 37.7414C11.7932 37.4072 12.5946 36.859 13.1956 36.097C14.3842 34.5461 14.9853 32.5274 14.9853 30.0541C14.9853 27.5808 14.3842 25.5754 13.1956 24.0112C12.0069 22.4603 10.471 21.6849 8.60117 21.6849ZM9.97682 33.5167C9.3758 34.359 8.52103 34.7734 7.4125 34.7734C6.33067 34.7734 5.50261 34.359 4.9016 33.5167C4.34065 32.7547 4.06018 31.5381 4.06018 29.8669C4.06018 28.4364 4.35401 27.3 4.95502 26.4577C5.55603 25.6556 6.41081 25.2679 7.51934 25.2679C8.5611 25.2679 9.3758 25.6823 9.96346 26.5246C10.5645 27.3267 10.8583 28.4364 10.8583 29.8669C10.8717 31.4712 10.5778 32.6878 9.97682 33.5167Z" fill="white"/>
<path d="M84.7829 23.0485C83.3138 22.1261 81.6977 21.6715 79.9481 21.6715C78.2385 21.7517 76.6759 22.2464 75.2602 23.1689C73.8445 24.0913 73.1366 25.8962 73.1366 28.6101V37.9419H77.317V27.7813C77.317 26.8187 77.5975 26.1235 78.1584 25.6823C78.7194 25.2411 79.3471 25.0272 80.0683 25.0272C80.7895 25.0272 81.4306 25.2411 82.0049 25.6823C82.5792 26.1235 82.873 26.8187 82.873 27.7813V35.9098C82.873 36.5114 83.06 36.9927 83.434 37.3804C83.8079 37.7547 84.3021 37.9419 84.9031 37.9419H87V28.6101C86.9866 25.8293 86.2521 23.971 84.7829 23.0485Z" fill="white"/>
<path d="M27.059 22.8213C25.9371 22.0593 24.2676 21.6849 22.0372 21.6849C20.0471 21.6849 18.5112 22.1395 17.4427 23.062C16.4811 23.8641 15.9335 24.8802 15.7733 26.1102H19.78C19.9804 25.669 20.3009 25.3749 20.7416 25.2144C21.1824 25.054 21.6765 24.9738 22.2375 24.9738C22.7584 24.9738 23.3193 25.0674 23.9337 25.2412C24.5481 25.415 24.8552 25.8027 24.8552 26.4043C24.8552 27.2064 23.9738 27.7145 22.2241 27.9551C21.8635 27.9952 21.543 28.0487 21.2625 28.1022C20.982 28.1557 20.7416 28.1958 20.5413 28.1958C19.0321 28.4364 17.7766 28.9177 16.8017 29.6263C15.8267 30.3482 15.3325 31.5381 15.3325 33.2092C15.3325 35.0007 15.8668 36.2842 16.9486 37.0596C18.0304 37.835 19.2725 38.2227 20.7149 38.2227C21.4361 38.2227 22.2642 38.1692 23.1991 38.0756C24.134 37.9821 25.0155 37.7013 25.8569 37.2735C26.6583 36.8724 27.3394 36.2307 27.9137 35.3349C28.488 34.4392 28.7819 33.1959 28.7819 31.5916V26.1503C28.7952 24.7331 28.2209 23.6101 27.059 22.8213ZM24.9087 31.4311C24.9087 32.5541 24.5881 33.4231 23.947 34.0649C23.306 34.7066 22.4378 35.0275 21.3159 35.0275C20.6348 35.0275 20.1273 34.867 19.7667 34.5462C19.4061 34.1852 19.2324 33.7039 19.2324 33.1157C19.2324 32.6745 19.366 32.2333 19.6465 31.8055C19.967 31.4846 20.4879 31.2306 21.1957 31.0301L22.5714 30.7359C23.5597 30.4953 24.3477 30.2413 24.8953 29.9605V31.4311H24.9087Z" fill="white"/>
<path d="M65.0029 21.6849C62.7324 21.6849 60.9561 22.4202 59.6873 23.8909C58.4585 25.3214 57.8308 27.3134 57.8308 29.8669C57.8308 32.5408 58.4719 34.5863 59.7407 36.0302C61.0095 37.5008 62.7858 38.2361 65.0563 38.2361C66.9261 38.2361 68.4754 37.7815 69.7175 36.859C70.9462 35.9767 71.7877 34.7066 72.2284 33.0354H69.2367C68.7559 33.0354 68.3953 33.129 68.1282 33.3296C67.8744 33.5301 67.7141 33.6905 67.6741 33.8109C67.5539 33.9312 67.447 34.0381 67.3402 34.1451C67.2467 34.2387 67.1265 34.3189 67.0063 34.359C66.5255 34.6397 65.9512 34.7734 65.27 34.7734C64.2283 34.7734 63.4536 34.4526 62.9461 33.8109C62.3852 33.2092 62.0913 32.3001 62.0513 31.0568H72.3887C72.4287 30.9766 72.4421 30.8429 72.4421 30.6423C72.4421 30.6022 72.4421 30.522 72.4421 30.4017C72.4421 30.2814 72.4421 30.1477 72.4421 29.9872C72.4421 27.3535 71.801 25.308 70.5322 23.824C69.2501 22.3935 67.3936 21.6849 65.0029 21.6849ZM62.078 28.3829C62.118 27.3535 62.4119 26.5513 62.9728 25.9898C63.5338 25.4283 64.2416 25.1476 65.1231 25.1476C66.0847 25.1476 66.8193 25.4283 67.3268 25.9898C67.8076 26.5112 68.0881 27.3 68.1682 28.3829H62.078Z" fill="white"/>
<path d="M41.0425 23.0485C39.5734 22.1261 37.9573 21.6715 36.2077 21.6715C34.4982 21.7517 32.9355 22.2464 31.5198 23.1689C30.1041 24.0913 29.3962 25.8962 29.3962 28.6101V37.9419H33.5766V27.7813C33.5766 26.8187 33.8571 26.1235 34.418 25.6823C34.979 25.2411 35.6067 25.0272 36.3279 25.0272C37.0491 25.0272 37.6902 25.2411 38.2645 25.6823C38.8388 26.1235 39.1326 26.8187 39.1326 27.7813V35.9098C39.1326 36.5114 39.3196 36.9927 39.6936 37.3804C40.0676 37.7547 40.5617 37.9419 41.1627 37.9419H43.2596V28.6101C43.2462 25.8293 42.5117 23.971 41.0425 23.0485Z" fill="white"/>
<path d="M58.178 22.0326H53.1562L48.081 27.8883V22.0326V20.7759H43.9006V37.942H48.081V34.1184V31.9125C48.081 31.5916 48.2947 31.351 48.7354 31.1905C49.1762 31.0301 49.6971 31.4847 50.2847 32.5676L53.2097 37.9554H58.2315L52.5018 28.1423L58.178 22.0326Z" fill="white"/>
<path d="M42.9524 19.8801C43.9274 20.2143 44.9157 20.3747 45.9174 20.3747C47.7739 20.3747 49.5102 19.8934 51.0995 18.9175C52.6888 17.9415 53.4902 16.0832 53.4902 13.3291V1.97865C53.4902 1.47062 53.2899 1.01606 52.9025 0.614986C52.5152 0.213908 52.0478 0 51.5002 0H49.5235V6.64452C49.0561 5.90921 48.4417 5.30759 47.667 4.83967C46.9325 4.45196 46.0777 4.25142 45.1027 4.25142C43.273 4.25142 41.7905 5.01347 40.6285 6.52419C39.5066 7.99481 38.9457 9.96009 38.9457 12.4067C38.9457 14.8933 39.5066 16.8586 40.6285 18.2891C41.2028 19.0244 41.9775 19.5592 42.9524 19.8801ZM43.7671 8.97077C44.3548 8.15524 45.1428 7.75417 46.1578 7.75417C47.1996 7.75417 48.041 8.14187 48.6554 8.91729C49.243 9.73281 49.5235 10.8425 49.5235 12.2329C49.5235 13.7837 49.2564 14.9736 48.7088 15.7891C48.1211 16.6046 47.3064 17.0057 46.2647 17.0057C45.1829 17.0057 44.3414 16.6046 43.7671 15.7891C43.1795 14.9736 42.899 13.7837 42.899 12.2329C42.899 10.8291 43.1795 9.74618 43.7671 8.97077Z" fill="white"/>
<path d="M55.5202 19.0379C56.6021 19.9336 58.2582 20.3748 60.4619 20.3748C62.7858 20.3748 64.5354 19.947 65.6974 19.0913C66.9395 18.1555 67.5539 16.8453 67.5539 15.134C67.5539 13.9709 67.1799 13.0351 66.4453 12.3399C65.6707 11.6848 64.295 11.0965 62.3184 10.5885C62.1581 10.5885 61.9978 10.5751 61.8242 10.535C61.6506 10.4949 61.4502 10.4414 61.2098 10.3612C59.1931 9.9334 58.1914 9.412 58.1914 8.78364C58.1914 8.31572 58.365 7.96812 58.7123 7.74084C59.0996 7.51356 59.6873 7.39324 60.4619 7.39324C61.2766 7.39324 61.9177 7.56704 62.3851 7.91464C62.5454 8.07507 62.6923 8.22213 62.8526 8.38256C63.2399 9.03766 63.8009 9.37189 64.5354 9.37189H67.033C66.9528 7.82105 66.3518 6.56435 65.2299 5.58839C64.0279 4.69265 62.4119 4.25146 60.3951 4.25146C58.5387 4.25146 57.0161 4.69265 55.8541 5.58839C54.7322 6.56435 54.1713 7.78095 54.1713 9.25156C54.1713 10.4147 54.5586 11.3505 55.3333 12.0457C56.0278 12.7409 57.4034 13.3426 59.4602 13.8506C59.8075 13.9709 60.3283 14.0779 61.0362 14.1982C62.6656 14.5458 63.4803 15.0672 63.4803 15.7758C63.4803 16.2437 63.2533 16.6047 62.7858 16.8854C62.2783 17.1528 61.6773 17.2865 60.9828 17.2865C60.0078 17.2865 59.2332 17.0859 58.6589 16.6982C58.1113 16.3105 57.8308 15.7223 57.7907 14.9469H53.8374V15.1207C53.8374 16.8453 54.3983 18.1421 55.5202 19.0379Z" fill="white"/>
<path d="M38.3713 6.57771C38.3713 6.02957 38.171 5.57502 37.7837 5.17394C37.3963 4.78623 36.9289 4.58569 36.3813 4.58569H34.2844V20.0806H38.358V6.57771H38.3713Z" fill="white"/>
<path d="M38.3713 2.03218C38.3713 1.48404 38.171 1.02949 37.7837 0.628408C37.3963 0.2407 36.9289 0.0401611 36.3813 0.0401611H34.2844V3.24878H38.358V2.03218H38.3713Z" fill="white"/>
<path d="M29.4363 20.0272C30.9321 20.1475 32.3211 20.1609 33.59 20.0807V17.0592H32.3746C31.5999 17.0592 31.2126 16.725 31.2126 16.0699V7.44673H31.6133C32.1609 7.44673 32.615 7.25956 33.0157 6.89859C33.403 6.52425 33.6033 6.05632 33.6033 5.46808V4.65255H31.2126V2.03218C31.2126 1.48404 31.0123 1.02949 30.625 0.628408C30.2376 0.2407 29.7969 0.0401611 29.2894 0.0401611H27.1925V17.1662C27.2059 18.9576 27.9404 19.9202 29.4363 20.0272Z" fill="white"/>
<path d="M26.5648 6.57771C26.5648 6.02957 26.3645 5.57502 25.9771 5.17394C25.5898 4.78623 25.1224 4.58569 24.5748 4.58569H22.4779V20.0806H26.5514V6.57771H26.5648Z" fill="white"/>
<path d="M13.0086 12.5804V20.094H17.0821V12.1125C17.0821 10.9494 17.3493 10.0938 17.8968 9.54562C18.4444 8.99748 19.2725 8.7301 20.3944 8.7301H21.73V4.599C21.6498 4.599 21.5563 4.599 21.4361 4.599C21.3159 4.599 21.2224 4.599 21.1423 4.599C20.1006 4.599 19.0722 4.73269 18.0838 5.00008C17.0955 5.26746 16.2274 5.69528 15.4928 6.28352C14.7182 6.89851 14.1038 7.7274 13.663 8.75684C13.2357 9.78627 13.0086 11.0697 13.0086 12.5804Z" fill="white"/>
<path d="M26.5648 2.03218C26.5648 1.48404 26.3645 1.02949 25.9771 0.628408C25.5898 0.2407 25.1224 0.0401611 24.5748 0.0401611H22.4779V3.24878H26.5514V2.03218H26.5648Z" fill="white"/>
</svg>
