<svg width="91" height="40" viewBox="0 0 91 40" fill="none" xmlns="http://www.w3.org/2000/svg">
<path d="M8.99482 22.6774C7.90538 22.6774 6.99752 22.8871 6.2433 23.3065C5.36337 23.8098 4.70692 24.453 4.246 25.2499V21.0276H4.25997V11.7581H10.2239C10.8385 11.7581 11.3553 11.5484 11.7743 11.115C12.1933 10.6955 12.4168 10.1643 12.4168 9.56307V8.16496H4.25997V3.64906H15.2102V0.0559082H2.19284C1.57828 0.0559082 1.0615 0.279606 0.642487 0.69904C0.223474 1.11847 0 1.64976 0 2.25095V18.1055V21.0136V32.4362C0 35.4002 0.851994 37.3995 2.55598 38.4341C4.25997 39.4827 6.11759 40 8.11489 40C9.16242 40 10.21 39.8182 11.2715 39.4687C12.333 39.1192 13.171 38.5459 13.7995 37.749C15.0426 36.1272 15.6711 34.0161 15.6711 31.4296C15.6711 28.843 15.0426 26.7459 13.7995 25.1101C12.5564 23.4883 10.9502 22.6774 8.99482 22.6774ZM10.4334 35.0507C9.80491 35.9315 8.91102 36.3649 7.75175 36.3649C6.62041 36.3649 5.75445 35.9315 5.12593 35.0507C4.53931 34.2537 4.246 32.9815 4.246 31.2338C4.246 29.7378 4.55328 28.5494 5.1818 27.6686C5.81032 26.8298 6.70421 26.4243 7.86348 26.4243C8.95292 26.4243 9.80491 26.8577 10.4195 27.7385C11.048 28.5774 11.3553 29.7378 11.3553 31.2338C11.3692 32.9116 11.0619 34.1838 10.4334 35.0507Z" fill="#4D9D34"/>
<path d="M88.6632 24.1034C87.1269 23.1387 85.4368 22.6633 83.6071 22.6633C81.8193 22.7472 80.1852 23.2645 78.7047 24.2292C77.2241 25.1939 76.4839 27.0814 76.4839 29.9195V39.6784H80.8556V29.0527C80.8556 28.0461 81.1489 27.319 81.7355 26.8577C82.3222 26.3963 82.9786 26.1726 83.7328 26.1726C84.4871 26.1726 85.1575 26.3963 85.7581 26.8577C86.3587 27.319 86.6659 28.0461 86.6659 29.0527V37.5532C86.6659 38.1824 86.8615 38.6857 87.2526 39.0912C87.6436 39.4826 88.1604 39.6784 88.7889 39.6784H90.9818V29.9195C90.9678 27.0115 90.1996 25.0681 88.6632 24.1034Z" fill="#4D9D34"/>
<path d="M28.2974 23.8658C27.1241 23.0688 25.3782 22.6774 23.0457 22.6774C20.9646 22.6774 19.3584 23.1527 18.241 24.1174C17.2354 24.9563 16.6628 26.0189 16.4952 27.3051H20.6853C20.8948 26.8437 21.23 26.5362 21.6909 26.3684C22.1518 26.2006 22.6686 26.1167 23.2552 26.1167C23.8 26.1167 24.3866 26.2146 25.0291 26.3964C25.6715 26.5781 25.9928 26.9836 25.9928 27.6127C25.9928 28.4516 25.071 28.9829 23.2413 29.2345C22.8642 29.2765 22.5289 29.3324 22.2356 29.3883C21.9423 29.4442 21.6909 29.4862 21.4814 29.4862C19.9031 29.7378 18.5902 30.2412 17.5706 30.9822C16.551 31.7371 16.0342 32.9815 16.0342 34.7291C16.0342 36.6026 16.5929 37.9448 17.7243 38.7557C18.8556 39.5666 20.1545 39.972 21.663 39.972C22.4172 39.972 23.2832 39.9161 24.2609 39.8182C25.2386 39.7204 26.1604 39.4268 27.0403 38.9794C27.8783 38.5599 28.5907 37.8888 29.1913 36.9521C29.7918 36.0154 30.0991 34.7151 30.0991 33.0374V27.3471C30.1131 25.8651 29.5125 24.6907 28.2974 23.8658ZM26.0487 32.8696C26.0487 34.044 25.7134 34.9528 25.043 35.6239C24.3726 36.295 23.4647 36.6305 22.2915 36.6305C21.5792 36.6305 21.0484 36.4628 20.6713 36.1272C20.2942 35.7497 20.1126 35.2464 20.1126 34.6312C20.1126 34.1699 20.2523 33.7085 20.5456 33.2611C20.8808 32.9255 21.4255 32.6599 22.1658 32.4502L23.6044 32.1426C24.638 31.8909 25.462 31.6253 26.0347 31.3317V32.8696H26.0487Z" fill="#4D9D34"/>
<path d="M67.9779 22.6774C65.6035 22.6774 63.7458 23.4463 62.419 24.9843C61.134 26.4802 60.4775 28.5634 60.4775 31.2338C60.4775 34.03 61.148 36.1692 62.4748 37.6791C63.8017 39.2171 65.6593 39.986 68.0337 39.986C69.9891 39.986 71.6093 39.5107 72.9083 38.546C74.1932 37.6232 75.0732 36.295 75.5341 34.5474H72.4054C71.9026 34.5474 71.5255 34.6452 71.2462 34.8549C70.9808 35.0647 70.8132 35.2324 70.7713 35.3583C70.6456 35.4841 70.5339 35.5959 70.4221 35.7078C70.3243 35.8057 70.1986 35.8895 70.0729 35.9315C69.5701 36.2251 68.9695 36.3649 68.2572 36.3649C67.1678 36.3649 66.3577 36.0294 65.8269 35.3583C65.2403 34.7291 64.933 33.7784 64.8911 32.4781H75.7017C75.7436 32.3943 75.7576 32.2544 75.7576 32.0447C75.7576 32.0028 75.7576 31.9189 75.7576 31.7931C75.7576 31.6672 75.7576 31.5274 75.7576 31.3597C75.7576 28.6054 75.0871 26.4663 73.7603 24.9143C72.4194 23.4184 70.478 22.6774 67.9779 22.6774ZM64.9191 29.6819C64.961 28.6054 65.2683 27.7665 65.8549 27.1793C66.4415 26.5921 67.1817 26.2985 68.1036 26.2985C69.1092 26.2985 69.8774 26.5921 70.4082 27.1793C70.911 27.7246 71.2043 28.5494 71.2881 29.6819H64.9191Z" fill="#4D9D34"/>
<path d="M42.9209 24.1034C41.3845 23.1387 39.6945 22.6633 37.8648 22.6633C36.077 22.7472 34.4429 23.2645 32.9623 24.2292C31.4818 25.1939 30.7416 27.0814 30.7416 29.9195V39.6784H35.1133V29.0527C35.1133 28.0461 35.4066 27.319 35.9932 26.8577C36.5798 26.3963 37.2363 26.1726 37.9905 26.1726C38.7447 26.1726 39.4151 26.3963 40.0157 26.8577C40.6163 27.319 40.9236 28.0461 40.9236 29.0527V37.5532C40.9236 38.1824 41.1191 38.6857 41.5102 39.0912C41.9013 39.4826 42.4181 39.6784 43.0466 39.6784H45.2394V29.9195C45.2255 27.0115 44.4573 25.0681 42.9209 24.1034Z" fill="#4D9D34"/>
<path d="M60.8407 23.0409H55.5891L50.2816 29.1646V23.0409V21.7267H45.9099V39.6785H50.2816V35.6799V33.373C50.2816 33.0374 50.505 32.7858 50.9659 32.618C51.4269 32.4502 51.9716 32.9256 52.5861 34.058L55.6449 39.6924H60.8966L54.9047 29.4303L60.8407 23.0409Z" fill="#4D9D34"/>
<path d="M44.9182 20.7899C45.9378 21.1395 46.9714 21.3072 48.0189 21.3072C49.9603 21.3072 51.7761 20.8039 53.4382 19.7833C55.1002 18.7627 55.9383 16.8193 55.9383 13.9392V2.06921C55.9383 1.53792 55.7288 1.06257 55.3237 0.643132C54.9187 0.223698 54.4298 0 53.8572 0H51.79V6.94862C51.3012 6.17966 50.6587 5.55051 49.8486 5.06117C49.0804 4.65572 48.1865 4.446 47.1669 4.446C45.2534 4.446 43.7031 5.24292 42.4879 6.82279C41.3147 8.36071 40.7281 10.4159 40.7281 12.9745C40.7281 15.575 41.3147 17.6302 42.4879 19.1262C43.0885 19.8951 43.8986 20.4544 44.9182 20.7899ZM45.7702 9.38134C46.3848 8.52849 47.2088 8.10905 48.2703 8.10905C49.3598 8.10905 50.2397 8.51451 50.8822 9.32541C51.4967 10.1783 51.79 11.3387 51.79 12.7927C51.79 14.4145 51.5107 15.6589 50.938 16.5117C50.3235 17.3646 49.4715 17.784 48.3821 17.784C47.2507 17.784 46.3708 17.3646 45.7702 16.5117C45.1557 15.6589 44.8624 14.4145 44.8624 12.7927C44.8624 11.3247 45.1557 10.1922 45.7702 9.38134Z" fill="#4D9D34"/>
<path d="M58.0612 19.9092C59.1926 20.8459 60.9245 21.3073 63.2291 21.3073C65.6594 21.3073 67.489 20.8599 68.7042 19.9651C70.0031 18.9864 70.6456 17.6163 70.6456 15.8267C70.6456 14.6103 70.2545 13.6316 69.4863 12.9046C68.6763 12.2196 67.2376 11.6044 65.1705 11.0731C65.0029 11.0731 64.8353 11.0591 64.6537 11.0172C64.4721 10.9752 64.2626 10.9193 64.0112 10.8354C61.9022 10.388 60.8547 9.84276 60.8547 9.18565C60.8547 8.69631 61.0362 8.3328 61.3994 8.09512C61.8044 7.85744 62.419 7.73161 63.2291 7.73161C64.0811 7.73161 64.7515 7.91336 65.2403 8.27687C65.4079 8.44465 65.5616 8.59844 65.7292 8.76621C66.1342 9.45129 66.7209 9.80082 67.489 9.80082H70.1009C70.0171 8.17901 69.3886 6.86478 68.2153 5.84416C66.9583 4.90742 65.2683 4.44604 63.1592 4.44604C61.2178 4.44604 59.6256 4.90742 58.4104 5.84416C57.2372 6.86478 56.6506 8.13706 56.6506 9.67499C56.6506 10.8913 57.0556 11.87 57.8657 12.597C58.592 13.3241 60.0306 13.9532 62.1815 14.4845C62.5447 14.6103 63.0894 14.7222 63.8297 14.848C65.5337 15.2115 66.3856 15.7568 66.3856 16.4978C66.3856 16.9871 66.1482 17.3646 65.6594 17.6582C65.1286 17.9378 64.5001 18.0776 63.7738 18.0776C62.7542 18.0776 61.9441 17.8679 61.3435 17.4625C60.7709 17.057 60.4776 16.4419 60.4357 15.6309H56.3014V15.8127C56.3014 17.6163 56.888 18.9724 58.0612 19.9092Z" fill="#4D9D34"/>
<path d="M40.1275 6.87872C40.1275 6.30549 39.918 5.83014 39.513 5.4107C39.1079 5.00525 38.6191 4.79553 38.0464 4.79553H35.8536V20.9996H40.1135V6.87872H40.1275Z" fill="#4D9D34"/>
<path d="M40.1275 2.12518C40.1275 1.55195 39.918 1.0766 39.513 0.657162C39.1079 0.251709 38.6191 0.0419922 38.0464 0.0419922H35.8536V3.39746H40.1135V2.12518H40.1275Z" fill="#4D9D34"/>
<path d="M30.7835 20.9438C32.3478 21.0696 33.8004 21.0836 35.1273 20.9997V17.84H33.8562C33.0462 17.84 32.6411 17.4904 32.6411 16.8054V7.78754H33.0601C33.6328 7.78754 34.1077 7.5918 34.5267 7.21431C34.9317 6.82284 35.1412 6.3335 35.1412 5.71833V4.86548H32.6411V2.12518C32.6411 1.55195 32.4316 1.0766 32.0266 0.657162C31.6215 0.251709 31.1606 0.0419922 30.6298 0.0419922H28.437V17.9518C28.451 19.8253 29.2192 20.8319 30.7835 20.9438Z" fill="#4D9D34"/>
<path d="M27.7806 6.87872C27.7806 6.30549 27.5711 5.83014 27.166 5.4107C26.761 5.00525 26.2721 4.79553 25.6995 4.79553H23.5067V20.9996H27.7666V6.87872H27.7806Z" fill="#4D9D34"/>
<path d="M13.6039 13.1562V21.0136H17.8639V12.6668C17.8639 11.4505 18.1432 10.5557 18.7159 9.98247C19.2886 9.40924 20.1545 9.12962 21.3277 9.12962H22.7245V4.80945C22.6407 4.80945 22.5429 4.80945 22.4172 4.80945C22.2915 4.80945 22.1937 4.80945 22.1099 4.80945C21.0205 4.80945 19.945 4.94926 18.9114 5.22888C17.8779 5.5085 16.97 5.9559 16.2018 6.57107C15.3917 7.2142 14.7492 8.08103 14.2883 9.15758C13.8414 10.2341 13.6039 11.5763 13.6039 13.1562Z" fill="#4D9D34"/>
<path d="M27.7806 2.12518C27.7806 1.55195 27.5711 1.0766 27.166 0.657162C26.761 0.251709 26.2721 0.0419922 25.6995 0.0419922H23.5067V3.39746H27.7666V2.12518H27.7806Z" fill="#4D9D34"/>
</svg>
