<svg width="1856" height="660" viewBox="0 0 1856 660" fill="none" xmlns="http://www.w3.org/2000/svg">
<path d="M42.8036 28.2496C205.362 23.4924 275.444 63.7971 345.199 103.536C414.356 145.506 484.079 187.15 630.015 244.431C921.049 362.118 943.771 277.317 1234.36 394.884C1380.41 451.719 1449.69 493.243 1519.17 535.779C1588.93 575.518 1659.01 615.823 1821.57 611.065" stroke="white" stroke-width="3" stroke-miterlimit="10"/>
<path d="M33.8507 48.2496C196.41 43.4924 266.045 83.6775 336.246 123.536C405.403 165.506 475.126 207.15 621.062 264.431C912.096 382.118 934.818 297.317 1225.41 414.884C1371.46 471.719 1440.74 513.243 1510.22 555.779C1579.98 595.518 1650.06 635.823 1812.62 631.065" stroke="white" stroke-width="3" stroke-miterlimit="10"/>
</svg>
